<mxfile host="app.diagrams.net" modified="2023-10-06T09:49:43.370Z" agent="Mozilla/5.0 (Macintosh; Intel Mac OS X 10_15_7) AppleWebKit/537.36 (KHTML, like Gecko) Chrome/117.0.0.0 Safari/537.36" etag="KKZvxQ6AywREg6jYOhaa" version="21.2.3" type="device">
  <diagram name="Modèle_de_données" id="ni98SVHszWj_1iTOYTVx">
    <mxGraphModel dx="1912" dy="1063" grid="1" gridSize="10" guides="1" tooltips="1" connect="1" arrows="1" fold="1" page="1" pageScale="1" pageWidth="827" pageHeight="1169" math="0" shadow="0">
      <root>
        <mxCell id="0" />
        <mxCell id="1" parent="0" />
        <mxCell id="9CVE_AiKFq_cPYP5f1aX-1" value="&lt;span style=&quot;font-weight: normal;&quot;&gt;&lt;font style=&quot;font-size: 12px;&quot;&gt;&amp;nbsp;PK uniqueId: INTEGER NOT NULL&lt;/font&gt;&lt;/span&gt;" style="swimlane;fontStyle=1;align=left;verticalAlign=top;childLayout=stackLayout;horizontal=1;startSize=26;horizontalStack=0;resizeParent=1;resizeParentMax=0;resizeLast=0;collapsible=1;marginBottom=0;whiteSpace=wrap;html=1;" parent="1" vertex="1">
          <mxGeometry x="300" y="1150" width="260" height="172" as="geometry">
            <mxRectangle y="542" width="120" height="30" as="alternateBounds" />
          </mxGeometry>
        </mxCell>
        <mxCell id="9CVE_AiKFq_cPYP5f1aX-2" value="name: VARCHAR(255) NOT NULL" style="text;strokeColor=none;fillColor=none;align=left;verticalAlign=top;spacingLeft=4;spacingRight=4;overflow=hidden;rotatable=0;points=[[0,0.5],[1,0.5]];portConstraint=eastwest;whiteSpace=wrap;html=1;" parent="9CVE_AiKFq_cPYP5f1aX-1" vertex="1">
          <mxGeometry y="26" width="260" height="26" as="geometry" />
        </mxCell>
        <mxCell id="9CVE_AiKFq_cPYP5f1aX-3" value="" style="line;strokeWidth=1;fillColor=none;align=left;verticalAlign=middle;spacingTop=-1;spacingLeft=3;spacingRight=3;rotatable=0;labelPosition=right;points=[];portConstraint=eastwest;strokeColor=inherit;" parent="9CVE_AiKFq_cPYP5f1aX-1" vertex="1">
          <mxGeometry y="52" width="260" height="8" as="geometry" />
        </mxCell>
        <mxCell id="9CVE_AiKFq_cPYP5f1aX-4" value="username: VARCHAR(255) NOT NULL" style="text;strokeColor=none;fillColor=none;align=left;verticalAlign=top;spacingLeft=4;spacingRight=4;overflow=hidden;rotatable=0;points=[[0,0.5],[1,0.5]];portConstraint=eastwest;whiteSpace=wrap;html=1;" parent="9CVE_AiKFq_cPYP5f1aX-1" vertex="1">
          <mxGeometry y="60" width="260" height="26" as="geometry" />
        </mxCell>
        <mxCell id="9CVE_AiKFq_cPYP5f1aX-5" value="&lt;span style=&quot;font-weight: normal;&quot;&gt;&lt;font style=&quot;font-size: 12px;&quot;&gt;&amp;nbsp;pseudo :&amp;nbsp;&lt;/font&gt;VARCHAR(255) NOT NULL&lt;/span&gt;" style="swimlane;fontStyle=1;align=left;verticalAlign=top;childLayout=stackLayout;horizontal=1;startSize=26;horizontalStack=0;resizeParent=1;resizeParentMax=0;resizeLast=0;collapsible=1;marginBottom=0;whiteSpace=wrap;html=1;" parent="9CVE_AiKFq_cPYP5f1aX-1" vertex="1">
          <mxGeometry y="86" width="260" height="86" as="geometry">
            <mxRectangle y="542" width="120" height="30" as="alternateBounds" />
          </mxGeometry>
        </mxCell>
        <mxCell id="9CVE_AiKFq_cPYP5f1aX-6" value="mail: VARCHAR(255) NOT NULL" style="text;strokeColor=none;fillColor=none;align=left;verticalAlign=top;spacingLeft=4;spacingRight=4;overflow=hidden;rotatable=0;points=[[0,0.5],[1,0.5]];portConstraint=eastwest;whiteSpace=wrap;html=1;" parent="9CVE_AiKFq_cPYP5f1aX-5" vertex="1">
          <mxGeometry y="26" width="260" height="26" as="geometry" />
        </mxCell>
        <mxCell id="9CVE_AiKFq_cPYP5f1aX-7" value="" style="line;strokeWidth=1;fillColor=none;align=left;verticalAlign=middle;spacingTop=-1;spacingLeft=3;spacingRight=3;rotatable=0;labelPosition=right;points=[];portConstraint=eastwest;strokeColor=inherit;" parent="9CVE_AiKFq_cPYP5f1aX-5" vertex="1">
          <mxGeometry y="52" width="260" height="8" as="geometry" />
        </mxCell>
        <mxCell id="9CVE_AiKFq_cPYP5f1aX-8" value="admin: BOOLEAN NOT NULL" style="text;strokeColor=none;fillColor=none;align=left;verticalAlign=top;spacingLeft=4;spacingRight=4;overflow=hidden;rotatable=0;points=[[0,0.5],[1,0.5]];portConstraint=eastwest;whiteSpace=wrap;html=1;" parent="9CVE_AiKFq_cPYP5f1aX-5" vertex="1">
          <mxGeometry y="60" width="260" height="26" as="geometry" />
        </mxCell>
        <mxCell id="Kw3-ZxFMyjBxTuiB0_CE-4" value="" style="endArrow=none;html=1;rounded=0;entryX=1;entryY=0;entryDx=0;entryDy=0;entryPerimeter=0;" parent="9CVE_AiKFq_cPYP5f1aX-5" edge="1">
          <mxGeometry width="50" height="50" relative="1" as="geometry">
            <mxPoint y="86" as="sourcePoint" />
            <mxPoint x="260" y="86" as="targetPoint" />
          </mxGeometry>
        </mxCell>
        <mxCell id="9CVE_AiKFq_cPYP5f1aX-11" value="&lt;span style=&quot;background-color: rgb(255, 255, 255);&quot;&gt;&lt;font color=&quot;#000000&quot;&gt;&lt;span style=&quot;white-space: pre;&quot;&gt; &lt;/span&gt;users&lt;span style=&quot;white-space: pre;&quot;&gt; &lt;/span&gt;&lt;/font&gt;&lt;/span&gt;" style="text;html=1;strokeColor=none;fillColor=#CCE5FF;align=left;verticalAlign=middle;whiteSpace=wrap;rounded=0;labelBackgroundColor=#D4E1F5;" parent="1" vertex="1">
          <mxGeometry x="300" y="1120" width="260" height="30" as="geometry" />
        </mxCell>
        <mxCell id="9CVE_AiKFq_cPYP5f1aX-12" value="&lt;span style=&quot;font-weight: normal;&quot;&gt;&lt;font style=&quot;font-size: 12px;&quot;&gt;&amp;nbsp;picture_user:&amp;nbsp;&lt;/font&gt;VARCHAR(255) NOT NULL&lt;/span&gt;" style="swimlane;fontStyle=1;align=left;verticalAlign=top;childLayout=stackLayout;horizontal=1;startSize=30;horizontalStack=0;resizeParent=1;resizeParentMax=0;resizeLast=0;collapsible=1;marginBottom=0;whiteSpace=wrap;html=1;" parent="1" vertex="1">
          <mxGeometry x="300" y="1374" width="260" height="30" as="geometry">
            <mxRectangle x="300" y="1690" width="120" height="30" as="alternateBounds" />
          </mxGeometry>
        </mxCell>
        <mxCell id="9CVE_AiKFq_cPYP5f1aX-38" value="&lt;span style=&quot;font-weight: normal;&quot;&gt;&lt;font style=&quot;font-size: 12px;&quot;&gt;&amp;nbsp;PK uniqueId: INTEGER NOT NULL&lt;/font&gt;&lt;/span&gt;" style="swimlane;fontStyle=1;align=left;verticalAlign=top;childLayout=stackLayout;horizontal=1;startSize=26;horizontalStack=0;resizeParent=1;resizeParentMax=0;resizeLast=0;collapsible=1;marginBottom=0;whiteSpace=wrap;html=1;" parent="1" vertex="1">
          <mxGeometry x="811" y="1650" width="260" height="190" as="geometry">
            <mxRectangle y="542" width="120" height="30" as="alternateBounds" />
          </mxGeometry>
        </mxCell>
        <mxCell id="9CVE_AiKFq_cPYP5f1aX-39" value="FK id_user_ associated: INTEGER NOT NULL" style="text;strokeColor=none;fillColor=none;align=left;verticalAlign=top;spacingLeft=4;spacingRight=4;overflow=hidden;rotatable=0;points=[[0,0.5],[1,0.5]];portConstraint=eastwest;whiteSpace=wrap;html=1;" parent="9CVE_AiKFq_cPYP5f1aX-38" vertex="1">
          <mxGeometry y="26" width="260" height="26" as="geometry" />
        </mxCell>
        <mxCell id="9CVE_AiKFq_cPYP5f1aX-40" value="&lt;span style=&quot;font-weight: normal;&quot;&gt;&lt;font style=&quot;font-size: 12px;&quot;&gt;&amp;nbsp;title: VARCHAR(255)&lt;/font&gt;&amp;nbsp;NOT NULL&lt;/span&gt;" style="swimlane;fontStyle=1;align=left;verticalAlign=top;childLayout=stackLayout;horizontal=1;startSize=34;horizontalStack=0;resizeParent=1;resizeParentMax=0;resizeLast=0;collapsible=1;marginBottom=0;whiteSpace=wrap;html=1;" parent="9CVE_AiKFq_cPYP5f1aX-38" vertex="1">
          <mxGeometry y="52" width="260" height="60" as="geometry">
            <mxRectangle y="542" width="120" height="30" as="alternateBounds" />
          </mxGeometry>
        </mxCell>
        <mxCell id="9CVE_AiKFq_cPYP5f1aX-41" value="content: TEXTAREA NOT NULL" style="text;strokeColor=none;fillColor=none;align=left;verticalAlign=top;spacingLeft=4;spacingRight=4;overflow=hidden;rotatable=0;points=[[0,0.5],[1,0.5]];portConstraint=eastwest;whiteSpace=wrap;html=1;" parent="9CVE_AiKFq_cPYP5f1aX-40" vertex="1">
          <mxGeometry y="34" width="260" height="26" as="geometry" />
        </mxCell>
        <mxCell id="9CVE_AiKFq_cPYP5f1aX-42" value="&lt;span style=&quot;font-weight: normal;&quot;&gt;&lt;font style=&quot;font-size: 12px;&quot;&gt;&amp;nbsp;category:&amp;nbsp;&lt;/font&gt;VARCHAR (255) NOT NULL&lt;/span&gt;" style="swimlane;fontStyle=1;align=left;verticalAlign=top;childLayout=stackLayout;horizontal=1;startSize=26;horizontalStack=0;resizeParent=1;resizeParentMax=0;resizeLast=0;collapsible=1;marginBottom=0;whiteSpace=wrap;html=1;" parent="9CVE_AiKFq_cPYP5f1aX-38" vertex="1">
          <mxGeometry y="112" width="260" height="78" as="geometry">
            <mxRectangle y="86" width="260" height="30" as="alternateBounds" />
          </mxGeometry>
        </mxCell>
        <mxCell id="9CVE_AiKFq_cPYP5f1aX-43" value="picture_figure: VARCHAR(255) NOT NULL" style="text;strokeColor=none;fillColor=none;align=left;verticalAlign=top;spacingLeft=4;spacingRight=4;overflow=hidden;rotatable=0;points=[[0,0.5],[1,0.5]];portConstraint=eastwest;whiteSpace=wrap;html=1;" parent="9CVE_AiKFq_cPYP5f1aX-42" vertex="1">
          <mxGeometry y="26" width="260" height="26" as="geometry" />
        </mxCell>
        <mxCell id="9CVE_AiKFq_cPYP5f1aX-44" value="prixTotal: FLOAT NOT NULL" style="text;strokeColor=none;fillColor=none;align=left;verticalAlign=top;spacingLeft=4;spacingRight=4;overflow=hidden;rotatable=0;points=[[0,0.5],[1,0.5]];portConstraint=eastwest;whiteSpace=wrap;html=1;" parent="9CVE_AiKFq_cPYP5f1aX-42" vertex="1">
          <mxGeometry y="52" width="260" height="26" as="geometry" />
        </mxCell>
        <mxCell id="9CVE_AiKFq_cPYP5f1aX-45" value="&lt;span style=&quot;background-color: rgb(255, 255, 255);&quot;&gt;&lt;font color=&quot;#000000&quot;&gt;&lt;span style=&quot;white-space: pre;&quot;&gt; &lt;/span&gt;figures&lt;span style=&quot;white-space: pre;&quot;&gt; &lt;/span&gt;&lt;/font&gt;&lt;/span&gt;" style="text;html=1;strokeColor=none;fillColor=#F19C99;align=left;verticalAlign=middle;whiteSpace=wrap;rounded=0;labelBackgroundColor=#D4E1F5;" parent="1" vertex="1">
          <mxGeometry x="811" y="1620" width="260" height="30" as="geometry" />
        </mxCell>
        <mxCell id="9CVE_AiKFq_cPYP5f1aX-46" value="&lt;span style=&quot;font-weight: normal;&quot;&gt;&lt;font style=&quot;font-size: 12px;&quot;&gt;&amp;nbsp;video_figure:&amp;nbsp;&lt;/font&gt;VARCHAR(255) NOT NULL&lt;/span&gt;" style="swimlane;fontStyle=1;align=left;verticalAlign=top;childLayout=stackLayout;horizontal=1;startSize=26;horizontalStack=0;resizeParent=1;resizeParentMax=0;resizeLast=0;collapsible=1;marginBottom=0;whiteSpace=wrap;html=1;" parent="1" vertex="1">
          <mxGeometry x="811" y="1822" width="260" height="52" as="geometry">
            <mxRectangle y="542" width="120" height="30" as="alternateBounds" />
          </mxGeometry>
        </mxCell>
        <mxCell id="9CVE_AiKFq_cPYP5f1aX-47" value="date_create: DATE NOT NULL" style="text;strokeColor=none;fillColor=none;align=left;verticalAlign=top;spacingLeft=4;spacingRight=4;overflow=hidden;rotatable=0;points=[[0,0.5],[1,0.5]];portConstraint=eastwest;whiteSpace=wrap;html=1;" parent="9CVE_AiKFq_cPYP5f1aX-46" vertex="1">
          <mxGeometry y="26" width="260" height="26" as="geometry" />
        </mxCell>
        <mxCell id="9CVE_AiKFq_cPYP5f1aX-57" value="&lt;span style=&quot;font-weight: normal;&quot;&gt;&lt;font style=&quot;font-size: 12px;&quot;&gt;&amp;nbsp;PK uniqueId: INTEGER NOT NULL&lt;/font&gt;&lt;/span&gt;" style="swimlane;fontStyle=1;align=left;verticalAlign=top;childLayout=stackLayout;horizontal=1;startSize=26;horizontalStack=0;resizeParent=1;resizeParentMax=0;resizeLast=0;collapsible=1;marginBottom=0;whiteSpace=wrap;html=1;" parent="1" vertex="1">
          <mxGeometry x="1110" y="1150" width="260" height="138" as="geometry">
            <mxRectangle y="542" width="120" height="30" as="alternateBounds" />
          </mxGeometry>
        </mxCell>
        <mxCell id="9CVE_AiKFq_cPYP5f1aX-58" value="FK id_user_ associated: INTEGER NOT NULL" style="text;strokeColor=none;fillColor=none;align=left;verticalAlign=top;spacingLeft=4;spacingRight=4;overflow=hidden;rotatable=0;points=[[0,0.5],[1,0.5]];portConstraint=eastwest;whiteSpace=wrap;html=1;" parent="9CVE_AiKFq_cPYP5f1aX-57" vertex="1">
          <mxGeometry y="26" width="260" height="26" as="geometry" />
        </mxCell>
        <mxCell id="9CVE_AiKFq_cPYP5f1aX-59" value="" style="line;strokeWidth=1;fillColor=none;align=left;verticalAlign=middle;spacingTop=-1;spacingLeft=3;spacingRight=3;rotatable=0;labelPosition=right;points=[];portConstraint=eastwest;strokeColor=inherit;" parent="9CVE_AiKFq_cPYP5f1aX-57" vertex="1">
          <mxGeometry y="52" width="260" height="8" as="geometry" />
        </mxCell>
        <mxCell id="9CVE_AiKFq_cPYP5f1aX-60" value="FK id_post_ associated: INTEGER NOT NULL" style="text;strokeColor=none;fillColor=none;align=left;verticalAlign=top;spacingLeft=4;spacingRight=4;overflow=hidden;rotatable=0;points=[[0,0.5],[1,0.5]];portConstraint=eastwest;whiteSpace=wrap;html=1;" parent="9CVE_AiKFq_cPYP5f1aX-57" vertex="1">
          <mxGeometry y="60" width="260" height="26" as="geometry" />
        </mxCell>
        <mxCell id="9CVE_AiKFq_cPYP5f1aX-61" value="&lt;span style=&quot;font-weight: normal;&quot;&gt;&lt;font style=&quot;font-size: 12px;&quot;&gt;&amp;nbsp;content:&amp;nbsp;&lt;/font&gt;TEXTAREA NOT NULL&lt;/span&gt;" style="swimlane;fontStyle=1;align=left;verticalAlign=top;childLayout=stackLayout;horizontal=1;startSize=26;horizontalStack=0;resizeParent=1;resizeParentMax=0;resizeLast=0;collapsible=1;marginBottom=0;whiteSpace=wrap;html=1;" parent="9CVE_AiKFq_cPYP5f1aX-57" vertex="1">
          <mxGeometry y="86" width="260" height="52" as="geometry">
            <mxRectangle y="542" width="120" height="30" as="alternateBounds" />
          </mxGeometry>
        </mxCell>
        <mxCell id="9CVE_AiKFq_cPYP5f1aX-62" value="date_create: DATE NOT NULL" style="text;strokeColor=none;fillColor=none;align=left;verticalAlign=top;spacingLeft=4;spacingRight=4;overflow=hidden;rotatable=0;points=[[0,0.5],[1,0.5]];portConstraint=eastwest;whiteSpace=wrap;html=1;" parent="9CVE_AiKFq_cPYP5f1aX-61" vertex="1">
          <mxGeometry y="26" width="260" height="26" as="geometry" />
        </mxCell>
        <mxCell id="9CVE_AiKFq_cPYP5f1aX-67" value="&lt;span style=&quot;background-color: rgb(255, 255, 255);&quot;&gt;&lt;span style=&quot;white-space: pre;&quot;&gt; &lt;/span&gt;comments&lt;span style=&quot;white-space: pre;&quot;&gt; &lt;/span&gt;&lt;/span&gt;" style="text;html=1;strokeColor=none;fillColor=#E1D5E7;align=left;verticalAlign=middle;whiteSpace=wrap;rounded=0;labelBackgroundColor=#D4E1F5;" parent="1" vertex="1">
          <mxGeometry x="1110" y="1120" width="260" height="30" as="geometry" />
        </mxCell>
        <mxCell id="9CVE_AiKFq_cPYP5f1aX-70" value="" style="endArrow=open;endFill=1;endSize=12;html=1;rounded=0;exitX=1;exitY=0.056;exitDx=0;exitDy=0;exitPerimeter=0;" parent="1" edge="1">
          <mxGeometry width="160" relative="1" as="geometry">
            <mxPoint x="560" y="1171.0880000000002" as="sourcePoint" />
            <mxPoint x="810" y="1700" as="targetPoint" />
            <Array as="points">
              <mxPoint x="650" y="1171" />
              <mxPoint x="649" y="1700" />
            </Array>
          </mxGeometry>
        </mxCell>
        <mxCell id="9CVE_AiKFq_cPYP5f1aX-73" value="" style="endArrow=open;endFill=1;endSize=12;html=1;rounded=0;entryX=1;entryY=0.5;entryDx=0;entryDy=0;exitX=1.005;exitY=0.08;exitDx=0;exitDy=0;exitPerimeter=0;" parent="1" source="9CVE_AiKFq_cPYP5f1aX-38" target="9CVE_AiKFq_cPYP5f1aX-60" edge="1">
          <mxGeometry width="160" relative="1" as="geometry">
            <mxPoint x="1160" y="1640" as="sourcePoint" />
            <mxPoint x="1480" y="1199" as="targetPoint" />
            <Array as="points">
              <mxPoint x="1400" y="1665" />
              <mxPoint x="1400" y="1223" />
            </Array>
          </mxGeometry>
        </mxCell>
        <mxCell id="Kw3-ZxFMyjBxTuiB0_CE-2" value="password: VARCHAR(255) NOT NULL" style="text;strokeColor=none;fillColor=none;align=left;verticalAlign=top;spacingLeft=4;spacingRight=4;overflow=hidden;rotatable=0;points=[[0,0.5],[1,0.5]];portConstraint=eastwest;whiteSpace=wrap;html=1;" parent="1" vertex="1">
          <mxGeometry x="300" y="1348" width="260" height="26" as="geometry" />
        </mxCell>
        <mxCell id="Kw3-ZxFMyjBxTuiB0_CE-3" value="&lt;span style=&quot;font-weight: normal;&quot;&gt;&lt;font style=&quot;font-size: 12px;&quot;&gt;&amp;nbsp;activated:&amp;nbsp;&lt;/font&gt;BOOLEAN NOT NULL&lt;/span&gt;" style="swimlane;fontStyle=1;align=left;verticalAlign=top;childLayout=stackLayout;horizontal=1;startSize=26;horizontalStack=0;resizeParent=1;resizeParentMax=0;resizeLast=0;collapsible=1;marginBottom=0;whiteSpace=wrap;html=1;" parent="1" vertex="1">
          <mxGeometry x="300" y="1322" width="260" height="52" as="geometry">
            <mxRectangle y="542" width="120" height="30" as="alternateBounds" />
          </mxGeometry>
        </mxCell>
        <mxCell id="Kw3-ZxFMyjBxTuiB0_CE-7" value="" style="endArrow=open;endFill=1;endSize=12;html=1;rounded=0;entryX=0;entryY=0.5;entryDx=0;entryDy=0;exitX=1.001;exitY=0.055;exitDx=0;exitDy=0;exitPerimeter=0;" parent="1" source="9CVE_AiKFq_cPYP5f1aX-1" target="9CVE_AiKFq_cPYP5f1aX-58" edge="1">
          <mxGeometry width="160" relative="1" as="geometry">
            <mxPoint x="690" y="1140" as="sourcePoint" />
            <mxPoint x="1368" y="1060" as="targetPoint" />
            <Array as="points">
              <mxPoint x="830" y="1161" />
              <mxPoint x="830" y="1190" />
              <mxPoint x="930" y="1190" />
              <mxPoint x="1000" y="1190" />
            </Array>
          </mxGeometry>
        </mxCell>
      </root>
    </mxGraphModel>
  </diagram>
</mxfile>
